<svg width="57" height="56" viewBox="0 0 57 56" fill="none" xmlns="http://www.w3.org/2000/svg">
<path d="M20.52 9H36.48C42.56 9 47.5 13.94 47.5 20.02V35.98C47.5 38.9027 46.339 41.7057 44.2723 43.7723C42.2057 45.839 39.4027 47 36.48 47H20.52C14.44 47 9.5 42.06 9.5 35.98V20.02C9.5 17.0973 10.661 14.2943 12.7277 12.2277C14.7943 10.161 17.5973 9 20.52 9ZM20.14 12.8C18.3259 12.8 16.5861 13.5206 15.3034 14.8034C14.0206 16.0861 13.3 17.8259 13.3 19.64V36.36C13.3 40.141 16.359 43.2 20.14 43.2H36.86C38.6741 43.2 40.4139 42.4794 41.6966 41.1966C42.9794 39.9139 43.7 38.1741 43.7 36.36V19.64C43.7 15.859 40.641 12.8 36.86 12.8H20.14ZM38.475 15.65C39.1049 15.65 39.709 15.9002 40.1544 16.3456C40.5998 16.791 40.85 17.3951 40.85 18.025C40.85 18.6549 40.5998 19.259 40.1544 19.7044C39.709 20.1498 39.1049 20.4 38.475 20.4C37.8451 20.4 37.241 20.1498 36.7956 19.7044C36.3502 19.259 36.1 18.6549 36.1 18.025C36.1 17.3951 36.3502 16.791 36.7956 16.3456C37.241 15.9002 37.8451 15.65 38.475 15.65ZM28.5 18.5C31.0196 18.5 33.4359 19.5009 35.2175 21.2825C36.9991 23.0641 38 25.4804 38 28C38 30.5196 36.9991 32.9359 35.2175 34.7175C33.4359 36.4991 31.0196 37.5 28.5 37.5C25.9804 37.5 23.5641 36.4991 21.7825 34.7175C20.0009 32.9359 19 30.5196 19 28C19 25.4804 20.0009 23.0641 21.7825 21.2825C23.5641 19.5009 25.9804 18.5 28.5 18.5ZM28.5 22.3C26.9883 22.3 25.5384 22.9005 24.4695 23.9695C23.4005 25.0384 22.8 26.4883 22.8 28C22.8 29.5117 23.4005 30.9616 24.4695 32.0305C25.5384 33.0995 26.9883 33.7 28.5 33.7C30.0117 33.7 31.4616 33.0995 32.5305 32.0305C33.5995 30.9616 34.2 29.5117 34.2 28C34.2 26.4883 33.5995 25.0384 32.5305 23.9695C31.4616 22.9005 30.0117 22.3 28.5 22.3Z" fill="#5B5B5B"/>
</svg>
