<svg width="57" height="56" viewBox="0 0 57 56" fill="none" xmlns="http://www.w3.org/2000/svg">
<path fill-rule="evenodd" clip-rule="evenodd" d="M16.5 13H39.5V43H16.5L16.5 13ZM13.5 13C13.5 11.3431 14.8431 10 16.5 10H39.5C41.1569 10 42.5 11.3431 42.5 13V43C42.5 44.6569 41.1569 46 39.5 46H16.5C14.8431 46 13.5 44.6569 13.5 43V13ZM22.5 20C22.5 20.8284 21.8284 21.5 21 21.5C20.1716 21.5 19.5 20.8284 19.5 20C19.5 19.1716 20.1716 18.5 21 18.5C21.8284 18.5 22.5 19.1716 22.5 20ZM22.5 27C22.5 27.8284 21.8284 28.5 21 28.5C20.1716 28.5 19.5 27.8284 19.5 27C19.5 26.1716 20.1716 25.5 21 25.5C21.8284 25.5 22.5 26.1716 22.5 27ZM21 35.5C21.8284 35.5 22.5 34.8284 22.5 34C22.5 33.1716 21.8284 32.5 21 32.5C20.1716 32.5 19.5 33.1716 19.5 34C19.5 34.8284 20.1716 35.5 21 35.5ZM24.5 20C24.5 19.1716 25.1716 18.5 26 18.5H34C34.8284 18.5 35.5 19.1716 35.5 20C35.5 20.8284 34.8284 21.5 34 21.5H26C25.1716 21.5 24.5 20.8284 24.5 20ZM26 25.5C25.1716 25.5 24.5 26.1716 24.5 27C24.5 27.8284 25.1716 28.5 26 28.5H34C34.8284 28.5 35.5 27.8284 35.5 27C35.5 26.1716 34.8284 25.5 34 25.5H26ZM24.5 34C24.5 33.1716 25.1716 32.5 26 32.5H34C34.8284 32.5 35.5 33.1716 35.5 34C35.5 34.8284 34.8284 35.5 34 35.5H26C25.1716 35.5 24.5 34.8284 24.5 34Z" fill="white"/>
</svg>
